<?xml version="1.0" encoding="UTF-8"?>
<!DOCTYPE svg PUBLIC "-//W3C//DTD SVG 1.1//EN" "http://www.w3.org/Graphics/SVG/1.1/DTD/svg11.dtd">
<!-- Creator: CorelDRAW (Evaluation Version) -->
<svg xmlns="http://www.w3.org/2000/svg" xml:space="preserve" width="39.8707mm" height="39.8707mm" version="1.1" style="shape-rendering:geometricPrecision; text-rendering:geometricPrecision; image-rendering:optimizeQuality; fill-rule:evenodd; clip-rule:evenodd"
viewBox="0 0 4003.45 4003.45"
 xmlns:xlink="http://www.w3.org/1999/xlink"
 xmlns:xodm="http://www.corel.com/coreldraw/odm/2003">
 <defs>
  <style type="text/css">
   <![CDATA[
    .str0 {stroke:#0E87FC;stroke-width:7.65;stroke-miterlimit:22.9256}
    .fil16 {fill:#0350B2;fill-rule:nonzero}
    .fil22 {fill:#0350B3;fill-rule:nonzero}
    .fil21 {fill:#0351B3;fill-rule:nonzero}
    .fil19 {fill:#0351B4;fill-rule:nonzero}
    .fil9 {fill:#0352B6;fill-rule:nonzero}
    .fil5 {fill:#0352B7;fill-rule:nonzero}
    .fil4 {fill:#0353B8;fill-rule:nonzero}
    .fil18 {fill:#05479F;fill-rule:nonzero}
    .fil1 {fill:#0548A0;fill-rule:nonzero}
    .fil0 {fill:#0548A1;fill-rule:nonzero}
    .fil2 {fill:#0670FE;fill-rule:nonzero}
    .fil17 {fill:#0772FD;fill-rule:nonzero}
    .fil13 {fill:#0773FB;fill-rule:nonzero}
    .fil10 {fill:#0775FD;fill-rule:nonzero}
    .fil8 {fill:#0875FC;fill-rule:nonzero}
    .fil20 {fill:#0876FD;fill-rule:nonzero}
    .fil14 {fill:#0877FC;fill-rule:nonzero}
    .fil11 {fill:#0978FD;fill-rule:nonzero}
    .fil15 {fill:#0C7BEB;fill-rule:nonzero}
    .fil6 {fill:#0E84F8;fill-rule:nonzero}
    .fil12 {fill:#0E87FB;fill-rule:nonzero}
    .fil3 {fill:#0E87FC;fill-rule:nonzero}
    .fil7 {fill:#0F88FC;fill-rule:nonzero}
   ]]>
  </style>
 </defs>
 <g id="Layer_x0020_1">
  <metadata id="CorelCorpID_0Corel-Layer"/>
  <g id="_1581065888">
   <polygon class="fil0" points="707.69,748.13 808.79,748.13 849.21,768.35 930.1,829.01 1010.99,930.1 1071.64,990.76 1152.5,1071.64 1253.62,1172.74 1334.48,1233.4 1435.59,1314.28 1556.91,1395.14 1678.23,1455.8 1839.98,1516.45 2021.95,1577.11 2224.15,1617.57 2365.68,1637.77 2507.22,1637.77 3619.3,1658 3983.24,1658 4003.45,1698.43 4003.45,1738.88 3882.13,2082.61 3740.61,2486.99 3700.16,2608.31 3659.72,2668.97 3578.84,2770.08 3518.18,2810.51 3437.32,2891.4 3376.66,2931.82 3295.77,3012.71 3295.77,3012.71 3295.77,3032.92 3235.11,3073.37 3154.23,3154.23 3093.57,3214.89 2972.26,3316 2931.82,3356.43 2891.4,3336.21 2850.94,3295.77 2729.63,3093.57 2689.19,3012.71 2668.97,2992.48 2628.53,3113.8 2567.87,3235.11 2486.99,3336.21 2426.34,3417.09 2365.68,3497.98 2284.81,3578.84 2224.15,3639.5 2143.27,3720.38 2082.61,3801.27 2001.73,3902.35 1920.86,3983.24 1900.63,4003.45 1860.2,4003.45 1819.74,3963.01 1738.88,3861.93 1658,3760.81 1556.91,3639.5 1496.25,3538.4 1395.14,3396.87 1294.05,3295.77 1091.85,3032.92 1031.19,2952.06 1010.99,2911.6 990.76,2931.82 869.45,3012.71 788.56,3073.37 727.9,3073.37 687.47,3053.14 606.58,2952.06 545.92,2871.17 465.06,2790.28 404.4,2729.63 323.52,2628.53 242.63,2527.45 222.43,2406.13 101.11,1799.54 40.46,1496.25 -0,1253.62 -0,1172.74 40.46,1152.5 101.11,1152.5 303.29,1253.62 465.06,1334.48 465.06,1334.48 485.27,1192.96 505.5,1071.64 525.72,930.1 586.38,849.21 647.04,788.56 "/>
   <polygon class="fil1" points="1031.19,0 1152.5,0 1253.62,40.46 1334.48,80.88 1415.37,141.54 1455.8,202.21 1496.25,303.29 1496.25,343.75 1496.25,525.72 1476.03,647.04 1435.59,727.9 1395.14,768.35 1314.28,808.79 1253.62,829.01 1152.5,829.01 1071.64,808.79 950.33,748.13 889.67,687.47 829.01,647.04 788.56,566.16 748.13,465.06 748.13,424.61 748.13,323.52 768.35,222.43 808.79,141.54 889.67,80.88 930.1,40.46 1010.99,20.22 "/>
   <polygon class="fil2" points="970.53,2021.95 1010.99,2042.17 1112.08,2123.04 1233.4,2203.93 1415.37,2365.68 1415.37,2365.68 1435.59,2365.68 1415.37,2406.13 1334.48,2486.99 1253.62,2547.65 1172.74,2608.31 1091.85,2689.19 990.76,2770.08 889.67,2830.74 808.79,2911.6 748.13,2931.82 707.69,2871.17 647.04,2810.51 647.04,2790.28 626.81,2790.28 586.38,2729.63 586.38,2709.42 566.16,2709.42 566.16,2709.42 545.92,2709.42 505.5,2628.53 424.61,2567.87 424.61,2547.65 424.61,2507.22 465.06,2466.79 545.92,2385.9 566.16,2385.9 566.16,2385.9 566.16,2385.9 566.16,2365.68 606.58,2325.24 626.81,2325.24 626.81,2305.02 667.24,2284.81 667.24,2284.81 667.24,2284.81 727.9,2244.36 727.9,2244.36 748.13,2224.15 829.01,2143.27 889.67,2102.83 930.1,2062.39 "/>
   <polygon class="fil3" points="586.38,1536.69 667.24,1556.91 889.67,1617.57 1132.3,1678.23 1395.14,1718.66 1678.23,1759.09 1799.54,1759.09 2183.7,1779.32 2203.93,1779.32 2203.93,1799.54 2163.49,1819.74 2042.17,1920.86 1941.06,2001.72 1819.74,2102.83 1738.88,2163.49 1658,2244.36 1556.91,2305.02 1516.45,2305.02 1415.37,2224.15 1314.28,2123.04 1213.16,2062.39 1112.08,1981.52 1031.19,1900.63 930.1,1839.98 829.01,1738.88 727.9,1658 606.58,1577.11 586.38,1536.69 "/>
   <polygon class="fil3" points="1658,2567.87 1678.23,2567.87 1759.09,2648.77 1839.98,2689.19 1839.98,2709.42 1880.4,2729.63 2001.72,2810.51 2123.04,2911.6 2183.7,2992.48 2264.58,3113.8 2365.68,3255.35 2385.9,3275.55 2365.68,3295.77 2264.58,3396.87 2224.15,3457.52 2143.27,3558.64 2062.39,3639.5 2001.72,3720.38 1920.86,3801.27 1920.86,3801.27 1880.4,3700.16 1819.74,3437.32 1738.88,3012.71 1658,2628.53 1658,2608.31 "/>
   <polygon class="fil3" points="2770.08,1779.32 3700.16,1779.32 3720.38,1799.54 3720.38,1839.98 3659.72,1900.63 3619.3,1961.29 3477.75,2102.83 3417.09,2143.27 3174.46,2406.13 3134.03,2406.13 3093.57,2385.9 3053.14,2325.24 2952.06,2224.15 2871.17,2123.04 2689.19,1961.29 2689.19,1941.06 2668.97,1941.06 2608.31,1860.2 2608.31,1819.74 2628.53,1799.54 "/>
   <polygon class="fil4" points="1496.25,2486.99 1516.45,2486.99 1577.11,2790.28 1597.34,2830.74 1577.11,2850.94 1597.34,2871.17 1678.23,3235.11 1698.43,3316 1698.43,3376.66 1718.66,3457.52 1738.88,3518.18 1738.88,3558.64 1738.88,3578.84 1738.88,3619.3 1698.43,3619.3 1698.43,3599.06 1678.23,3599.06 1678.23,3578.84 1658,3558.64 1577.11,3497.98 1496.25,3356.43 1476.03,3336.21 1395.14,3235.11 1294.05,3113.8 1213.16,2992.48 1152.5,2931.82 1091.85,2871.17 1091.85,2830.74 1132.3,2790.28 1152.5,2790.28 1152.5,2790.28 1172.74,2770.08 1192.96,2729.63 1273.82,2668.97 1334.48,2628.53 1354.71,2608.31 1415.37,2567.87 1435.59,2547.65 "/>
   <polygon class="fil3" points="181.97,1415.37 222.43,1435.59 283.09,1476.03 404.4,1577.11 465.06,1617.57 566.16,1698.43 829.01,1900.63 849.21,1920.86 849.21,1961.29 788.56,2001.72 727.9,2082.61 606.58,2163.49 545.92,2224.15 485.27,2284.81 485.27,2284.81 465.06,2305.02 404.4,2345.47 363.95,2365.68 343.75,2365.68 323.52,2244.36 283.09,2042.17 202.21,1698.43 181.97,1476.03 181.97,1435.59 "/>
   <polygon class="fil5" points="2507.22,1961.29 2527.45,1981.52 2567.87,2001.72 2608.31,2042.17 2628.53,2042.17 2628.53,2042.17 2608.31,2042.17 2608.31,2021.95 2588.11,2021.95 2588.11,2001.72 2608.31,2021.95 2628.53,2021.95 2628.53,2042.17 2648.77,2042.17 2648.77,2062.39 2648.77,2062.39 2668.97,2102.83 2729.63,2143.27 2749.85,2203.93 2810.51,2244.36 2830.74,2284.81 2871.17,2305.02 2871.17,2325.24 2891.4,2325.24 2911.6,2365.68 2931.82,2385.9 2952.06,2406.13 3073.37,2527.45 3053.14,2608.31 3032.92,2668.97 3012.71,2749.85 2992.48,2749.85 2992.48,2850.94 2992.48,2871.17 2972.26,2871.17 2972.26,2911.6 2972.26,2931.82 2952.06,2972.26 2911.6,3093.57 2871.17,3113.8 2850.94,3053.14 2810.51,2992.48 2770.08,2931.82 2770.08,2911.6 2749.85,2911.6 2749.85,2891.4 2749.85,2871.17 2709.42,2790.28 2689.19,2668.97 2668.97,2608.31 2648.77,2527.45 2608.31,2385.9 2588.11,2305.02 2567.87,2244.36 2547.65,2183.7 2547.65,2143.27 2527.45,2062.39 2507.22,2001.72 "/>
   <polygon class="fil3" points="2244.36,1920.86 2284.81,1920.86 2244.36,2224.15 2183.7,2628.53 2163.49,2749.85 2143.27,2790.28 2102.83,2749.85 2001.72,2668.97 1941.06,2628.53 1860.2,2567.87 1759.09,2486.99 1698.43,2426.34 1698.43,2365.68 1718.66,2325.24 1799.54,2264.58 1819.74,2264.58 1819.74,2244.36 1920.86,2163.49 2021.95,2082.61 2143.27,2001.72 2224.15,1920.86 "/>
   <polygon class="fil3" points="3781.04,1981.52 3801.27,1981.52 3659.72,2365.68 3599.06,2547.65 3558.64,2608.31 3396.87,2749.85 3336.21,2810.51 3295.77,2871.17 3235.11,2911.6 3113.8,3032.92 3053.14,3073.37 3032.92,3073.37 3113.8,2810.51 3174.46,2567.87 3214.89,2507.22 3376.66,2365.68 3437.32,2305.02 3538.4,2203.93 3578.84,2163.49 3679.95,2062.39 3720.38,2021.95 3760.81,1981.52 "/>
   <polygon class="fil5" points="2406.13,2203.93 2406.13,2203.93 2446.56,2325.24 2507.22,2486.99 2527.45,2567.87 2567.87,2689.19 2588.11,2830.74 2608.31,2871.17 2507.22,2992.48 2466.79,3053.14 2446.56,3073.37 2406.13,3073.37 2345.47,3032.92 2305.02,2972.26 2264.58,2931.82 2264.58,2891.4 2264.58,2810.51 2284.81,2749.85 2284.81,2689.19 2305.02,2628.53 2305.02,2588.11 2325.24,2486.99 2325.24,2486.99 2325.24,2466.79 2325.24,2426.34 2325.24,2406.13 2345.47,2406.13 2345.47,2365.68 2345.47,2325.24 2345.47,2264.58 2365.68,2244.36 2385.9,2203.93 2406.13,2203.93 "/>
   <polygon class="fil3" points="2810.51,505.5 2871.17,525.72 2931.82,566.16 2992.48,647.04 3012.71,687.47 3012.71,748.13 2972.26,808.79 2891.4,869.45 2830.74,909.87 2790.28,889.67 2729.63,849.21 2709.42,808.79 2709.42,808.79 2668.97,788.56 2628.53,727.9 2648.77,667.24 2668.97,626.81 2689.19,626.81 2689.19,606.58 2709.42,606.58 2709.42,586.38 2729.63,586.38 2729.63,566.16 "/>
   <polygon class="fil3" points="3316,869.45 3356.43,869.45 3457.52,970.53 3497.98,1031.19 3497.98,1071.64 3437.32,1132.3 3376.66,1192.96 3336.21,1213.16 3295.77,1213.16 3235.11,1152.5 3174.46,1091.85 3154.23,1051.42 3154.23,1010.99 3194.69,970.53 3255.35,909.87 "/>
   <polygon class="fil4" points="141.54,1354.71 181.97,1374.93 303.29,1476.03 343.75,1496.25 363.95,1496.25 363.95,1516.45 404.4,1516.45 424.61,1556.91 485.27,1577.11 485.27,1617.57 525.72,1617.57 606.58,1658 647.04,1678.23 647.04,1698.43 667.24,1698.43 667.24,1718.66 687.47,1738.88 687.47,1759.09 727.9,1759.09 808.79,1819.74 829.01,1839.98 829.01,1860.2 849.21,1880.4 849.21,1880.4 889.67,1900.63 889.67,1961.29 829.01,1981.52 808.79,2001.72 788.56,2001.72 829.01,1961.29 849.21,1961.29 829.01,1920.86 748.13,1839.98 606.58,1738.88 525.72,1678.23 444.84,1617.57 323.52,1516.45 242.63,1455.8 202.21,1415.37 181.97,1435.59 181.97,1516.45 181.97,1516.45 "/>
   <polygon class="fil3" points="2931.82,1213.16 2992.48,1233.4 3053.14,1294.05 3073.37,1314.28 3073.37,1354.71 3012.71,1415.37 2972.26,1455.8 2911.6,1435.59 2871.17,1374.93 2830.74,1334.48 2850.94,1314.28 2911.6,1233.4 "/>
   <polygon class="fil6" points="2527.45,1759.09 3801.27,1759.09 3801.27,1799.54 3497.98,2102.83 3477.75,2082.61 3639.5,1920.86 3700.16,1839.98 3720.38,1819.74 3720.38,1799.54 2770.08,1799.54 2628.53,1799.54 2608.31,1819.74 2628.53,1860.2 2648.77,1880.4 2628.53,1900.63 2507.22,1779.32 "/>
   <polygon class="fil5" points="768.35,2183.7 788.56,2183.7 748.13,2224.15 707.69,2264.58 667.24,2284.81 667.24,2284.81 647.04,2305.02 626.81,2305.02 626.81,2325.24 586.38,2365.68 566.16,2365.68 566.16,2385.9 566.16,2385.9 566.16,2385.9 485.27,2466.79 444.84,2486.99 444.84,2486.99 424.61,2507.22 424.61,2547.65 505.5,2628.53 545.92,2689.19 545.92,2709.42 566.16,2709.42 566.16,2709.42 586.38,2709.42 626.81,2770.08 626.81,2790.28 647.04,2790.28 707.69,2871.17 748.13,2931.82 748.13,2931.82 687.47,2891.4 687.47,2871.17 687.47,2871.17 667.24,2830.74 647.04,2830.74 626.81,2790.28 606.58,2770.08 606.58,2770.08 606.58,2749.85 586.38,2749.85 525.72,2709.42 444.84,2608.31 424.61,2567.87 404.4,2567.87 384.18,2527.45 404.4,2486.99 444.84,2446.56 566.16,2365.68 586.38,2365.68 586.38,2345.47 626.81,2305.02 647.04,2305.02 647.04,2284.81 647.04,2284.81 647.04,2284.81 707.69,2224.15 727.9,2224.15 727.9,2224.15 748.13,2203.93 748.13,2183.7 "/>
   <polygon class="fil3 str0" points="161.77,1364.81 192.1,1364.81 293.19,1465.93 394.28,1546.79 515.6,1647.9 616.71,1728.76 738.03,1829.88 818.89,1870.3 798.69,1870.3 697.57,1789.42 596.48,1728.76 495.4,1647.9 414.51,1587.24 313.41,1506.35 252.75,1445.69 212.31,1425.47 192.1,1425.47 192.1,1526.58 171.87,1526.58 "/>
   <polygon class="fil7" points="2527.45,1759.09 2850.94,1759.09 2972.26,1779.32 2972.26,1779.32 2850.94,1799.54 2770.08,1799.54 2628.53,1799.54 2608.31,1819.74 2628.53,1860.2 2648.77,1880.4 2628.53,1900.63 2507.22,1779.32 "/>
   <polygon class="fil4" points="525.72,1496.25 586.38,1496.25 748.13,1556.91 808.79,1577.11 889.67,1617.57 1010.99,1637.77 1192.96,1678.23 1192.96,1698.43 1132.3,1678.23 869.45,1617.57 606.58,1536.69 586.38,1536.69 606.58,1577.11 586.38,1556.91 545.92,1536.69 "/>
   <polygon class="fil8" points="2992.48,647.04 3012.71,667.24 3012.71,727.9 2992.48,768.35 2891.4,869.45 2871.17,889.67 2871.17,849.21 2871.17,829.01 2891.4,829.01 2891.4,808.79 2952.06,768.35 2972.26,727.9 2992.48,727.9 "/>
   <polygon class="fil4" points="1455.8,1718.66 1738.88,1738.88 1839.98,1759.09 2102.83,1759.09 2203.93,1759.09 2224.15,1799.54 2183.7,1779.32 1799.54,1759.09 1455.8,1738.88 "/>
   <polygon class="fil9" points="1172.74,2608.31 1172.74,2608.31 1172.74,2648.77 1132.3,2668.97 1112.08,2689.19 1091.85,2689.19 1051.42,2729.63 1031.19,2749.85 930.1,2810.51 889.67,2850.94 889.67,2871.17 849.21,2911.6 808.79,2931.82 808.79,2911.6 909.87,2830.74 1010.99,2749.85 1091.85,2668.97 "/>
   <polygon class="fil4" points="1415.37,2365.68 1455.8,2385.9 1435.59,2406.13 1374.93,2466.79 1294.05,2527.45 1233.4,2588.11 1233.4,2608.31 1192.96,2628.53 1192.96,2608.31 1273.82,2507.22 1354.71,2446.56 1395.14,2446.56 1395.14,2406.13 1415.37,2385.9 1435.59,2365.68 1415.37,2365.68 "/>
   <polygon class="fil10" points="2931.82,1213.16 2992.48,1233.4 2992.48,1253.62 2952.06,1253.62 2911.6,1253.62 2911.6,1294.05 2891.4,1314.28 2871.17,1374.93 2850.94,1354.71 2830.74,1314.28 2911.6,1233.4 "/>
   <polygon class="fil9" points="970.53,2001.72 1010.99,2021.95 1051.42,2042.17 1071.64,2062.39 1071.64,2062.39 1091.85,2062.39 1112.08,2102.83 1192.96,2143.27 1192.96,2183.7 1152.5,2163.49 1091.85,2102.83 990.76,2042.17 970.53,2042.17 950.33,2042.17 "/>
   <polygon class="fil11" points="2810.51,505.5 2871.17,525.72 2931.82,566.16 2972.26,626.81 2972.26,647.04 2931.82,586.38 2891.4,586.38 2891.4,566.16 2810.51,545.92 2790.28,566.16 2790.28,586.38 2729.63,626.81 2729.63,626.81 2729.63,586.38 2790.28,525.72 "/>
   <polygon class="fil7" points="2284.81,1860.2 2305.02,1860.2 2284.81,1981.52 2244.36,2284.81 2244.36,2284.81 2244.36,2224.15 2264.58,2042.17 2284.81,1920.86 2224.15,1920.86 2264.58,1880.4 "/>
   <polygon class="fil9" points="2143.27,2911.6 2203.93,2992.48 2244.36,3032.92 2244.36,3053.14 2244.36,3073.37 2264.58,3073.37 2305.02,3113.8 2305.02,3134.03 2305.02,3134.03 2325.24,3154.23 2305.02,3174.46 2163.49,2972.26 2123.04,2931.82 "/>
   <polygon class="fil5" points="2406.13,2062.39 2426.34,2082.61 2446.56,2183.7 2466.79,2305.02 2466.79,2325.24 2466.79,2325.24 2426.34,2244.36 2406.13,2143.27 2385.9,2123.04 2385.9,2082.61 "/>
   <polygon class="fil12 str0" points="2214.03,2365.68 2214.03,2375.8 2214.03,2497.12 2173.6,2800.41 2153.37,2800.41 2112.93,2780.18 2133.17,2759.95 2153.37,2780.18 2173.6,2739.75 "/>
   <polygon class="fil13" points="3316,869.45 3356.43,869.45 3417.09,930.1 3417.09,930.1 3376.66,909.87 3295.77,909.87 3255.35,930.1 3255.35,930.1 3295.77,889.67 "/>
   <polygon class="fil14" points="3477.75,990.76 3497.98,990.76 3497.98,1031.19 3497.98,1071.64 3457.52,1132.3 3437.32,1132.3 3457.52,1071.64 3477.75,1051.42 3477.75,1010.99 "/>
   <polygon class="fil7" points="1698.43,2325.24 1718.66,2325.24 1698.43,2365.68 1698.43,2426.34 1718.66,2446.56 1678.23,2426.34 1637.77,2406.13 1658,2365.68 "/>
   <polygon class="fil7" points="444.84,2305.02 465.06,2305.02 363.95,2406.13 343.75,2406.13 323.52,2365.68 323.52,2325.24 343.75,2345.47 343.75,2365.68 384.18,2345.47 424.61,2325.24 "/>
   <path class="fil9" d="M1314.28 2486.99m0 0m0 0m-20.22 20.22m-20.23 0l20.23 0 -20.23 40.44 -40.43 40.46 0 20.2 -40.44 20.22 0 -20.22 80.86 -101.09z"/>
   <polygon class="fil15" points="687.47,2082.61 707.69,2082.61 647.04,2163.49 586.38,2203.93 566.16,2224.15 545.92,2224.15 647.04,2143.27 "/>
   <polygon class="fil16" points="3497.98,2668.97 3497.98,2689.19 3396.87,2790.28 3376.66,2790.28 3376.66,2790.28 3336.21,2830.74 3336.21,2810.51 3396.87,2749.85 3457.52,2709.42 "/>
   <polygon class="fil17" points="2790.28,525.72 2830.74,525.72 2810.51,566.16 2790.28,566.16 2790.28,586.38 2729.63,626.81 2729.63,626.81 2729.63,586.38 "/>
   <polygon class="fil18" points="2507.22,1961.29 2567.87,1981.52 2588.11,2001.72 2588.11,2021.95 2608.31,2021.95 2608.31,2042.17 2628.53,2042.17 2628.53,2062.39 2567.87,2021.95 2547.65,2001.72 2507.22,1981.52 "/>
   <polygon class="fil3" points="829.01,1900.63 849.21,1900.63 889.67,1920.86 889.67,1961.29 808.79,2001.72 788.56,2001.72 829.01,1961.29 849.21,1961.29 829.01,1920.86 "/>
   <polygon class="fil19" points="889.67,2850.94 909.87,2871.17 849.21,2911.6 808.79,2931.82 808.79,2911.6 849.21,2871.17 869.45,2871.17 "/>
   <polygon class="fil20" points="3417.09,1132.3 3437.32,1152.5 3376.66,1192.96 3336.21,1192.96 3376.66,1172.74 3396.87,1152.5 3396.87,1152.5 3417.09,1132.3 "/>
   <polygon class="fil21" points="3316,2830.74 3316,2850.94 3255.35,2891.4 3235.11,2931.82 3214.89,2911.6 3275.55,2871.17 "/>
   <polygon class="fil11" points="2911.6,1415.37 2972.26,1415.37 2992.48,1415.37 2972.26,1455.8 2911.6,1435.59 "/>
   <polygon class="fil22" points="2102.83,3599.06 2102.83,3619.3 2042.17,3679.95 2021.95,3700.16 2021.95,3679.95 "/>
  </g>
 </g>
</svg>
